<svg xmlns="http://www.w3.org/2000/svg" viewBox="0 0 1024 1024" preserveAspectRatio="xMidYMid meet">
  <g transform="translate(0,1024) scale(0.1,-0.1)" fill="#fd4c5b" stroke="none">
    <path d="M4995 9354 c-286 -44 -487 -144 -666 -330 -148 -156 -239 -338 -274 -555 -63 -393 96 -788 417 -1029 285 -215 657 -271 1002 -150 186 64 391 225 513 401 136 197 197 390 196 624 -1 407 -221 748 -605 939 -132 65 -261 96 -423 101 -71 2 -143 1 -160 -1z"/>
    <path d="M1114 8631 c-78 -35 -114 -112 -93 -198 11 -43 30 -66 197 -233 102 -102 224 -230 271 -285 482 -560 841 -1316 1005 -2115 44 -214 70 -424 92 -729 6 -80 10 -98 30 -118 l23 -23 2475 0 2475 0 26 23 c26 22 27 28 40 203 68 906 333 1698 799 2389 164 243 318 426 562 667 91 90 172 175 180 190 8 15 14 49 14 76 0 99 -92 184 -182 169 -38 -6 -454 -182 -673 -285 -913 -427 -1718 -1037 -2324 -1762 -315 -377 -608 -796 -841 -1205 -53 -92 -76 -124 -82 -114 -635 1082 -1202 1748 -1993 2337 -527 393 -1056 683 -1817 996 -98 41 -126 43 -184 17z"/>
    <path d="M2613 4526 l-28 -24 2 -144 c4 -408 110 -837 284 -1153 208 -376 486 -638 879 -827 80 -38 165 -79 189 -91 68 -34 146 -111 178 -175 22 -47 27 -70 27 -137 0 -110 -26 -173 -109 -262 -75 -82 -152 -136 -336 -234 -73 -40 -153 -85 -176 -100 -188 -129 -192 -373 -8 -472 l40 -22 1560 0 1561 0 49 26 c103 53 153 168 121 281 -34 123 -78 163 -305 282 -345 181 -450 291 -459 483 -4 72 -1 88 24 142 38 87 116 156 230 206 504 222 833 525 1059 975 142 284 215 564 246 952 15 198 10 275 -20 299 -23 18 -97 19 -2502 19 l-2478 0 -28 -24z"/>
  </g>
</svg> 